<?xml version="1.0" encoding="UTF-8"?>
<svg id="Layer_1" xmlns="http://www.w3.org/2000/svg" version="1.1" viewBox="0 0 1366 573.54">
  <!-- Generator: Adobe Illustrator 29.5.0, SVG Export Plug-In . SVG Version: 2.1.0 Build 137)  -->
  <defs>
    <style>
      .st0 {
        fill: #8a37ea;
      }

      .st1 {
        fill: #6b44ea;
      }

      .st2 {
        fill: #c52fea;
      }
    </style>
  </defs>
  <g>
    <path class="st0" d="M312.56,338.71c15.79,1.23,31.83-.49,47.13-4.94,18.26-5.42,35.54-14.81,50.34-28.37,14.81-13.33,25.91-29.61,33.07-47.14,6.17-14.8,9.38-30.6,9.63-46.39-15.79-1.23-31.83.25-47.13,4.94-14.81,4.2-28.87,11.35-41.71,20.98l-2.47,1.97c-.99.99-1.98,1.73-2.96,2.47h-.25c-.49.74-1.23,1.24-1.97,1.73v.25h-.25v.25h-.25v.25h-.25v.25h-.25c-14.81,13.57-25.91,29.86-33.07,47.38-5.92,14.81-9.14,30.6-9.63,46.39Z"/>
    <path class="st2" d="M299.74,144c-10.61,10.12-19.5,21.72-26.16,34.8-7.16,13.82-12.09,29.37-13.82,45.65l.74.49.75.74c16.53,14.81,28.87,32.33,37.5,51.33.5-.25.99-.25,1.73-.25,8.39-18.76,20.97-36.28,37.26-51.08.74-.49,1.48-1.23,1.97-1.73-1.73-16.29-6.42-31.59-13.82-45.41-6.66-12.83-15.55-24.68-26.16-34.55Z"/>
    <path class="st0" d="M289.37,383.13c-4.93-19.74-19.99-13.33-57.5-24.43-21.72-6.42-42.45-17.53-60.21-33.81-18.02-16.29-31.34-35.78-39.98-56.76-8.88-21.96-12.58-45.41-11.1-68.6l.74-10.37,10.12-1.73c23.2-3.7,46.89-2.47,69.35,4.2,12.34,3.7,24.18,8.88,35.29,15.55,2.96-14.31,7.9-27.89,14.31-40.48,10.12-19.49,24.18-36.52,41.21-50.09l7.1-5.81-22.48-22.48c-25.48-25.48-58.88-38.22-92.27-38.22s-66.79,12.74-92.27,38.22c-25.48,25.48-38.23,58.88-38.23,92.27s12.75,66.79,38.23,92.27l207.9,207.9,11.48-11.48c-10.82-42.03-19.29-75.96-21.68-86.17Z"/>
    <path class="st1" d="M507.47,88.32c-25.48-25.48-58.87-38.22-92.27-38.22s-66.8,12.74-92.27,38.22l-22.34,22.33,7.28,5.96c17.03,13.57,31.09,30.6,41.21,49.85,6.66,12.59,11.35,26.16,14.31,40.23,11.1-6.42,22.95-11.35,34.8-15.05,22.7-6.66,46.39-7.9,69.34-4.2l10.36,1.73.74,10.37c1.23,23.2-2.47,46.64-11.35,68.6-8.39,20.98-21.72,40.47-39.74,56.76-18.01,16.29-38.74,27.39-60.46,33.81-36.27,10.86-56.51,6.16-50.83,24.68,2.18,7.02,8.55,31.56,16.86,63.83l174.34-174.34c25.47-25.48,38.22-58.87,38.22-92.27s-12.74-66.79-38.22-92.27Z"/>
    <path class="st1" d="M243.36,244.44l-2.77-2.68-1.86-1.62c-12.29-11.06-26.03-19.26-40.72-24.81-15.16-5.83-30.79-8.48-46.64-8.42-.92,15.77,1.1,31.76,5.91,46.96,5.84,18,15.71,35.07,29.48,49.46,14.01,14.65,30.54,25.28,48.1,32.03,14.44,5.53,29.58,8.14,44.67,8.27.46-6.15.93-12.55,1.67-19.17-1.03-9.48-2.81-18.77-5.86-27.66-5.59-17.98-15.46-35.05-29.46-49.7l-2.52-2.66Z"/>
  </g>
  <g>
    <path class="st1" d="M528.53,411.95h30.43v17.93h-53.66v-95.37h23.23v77.44Z"/>
    <path class="st1" d="M571.8,342.59c-2.58-2.4-3.87-5.37-3.87-8.9s1.29-6.63,3.87-9.03c2.58-2.4,5.91-3.6,9.99-3.6s7.27,1.2,9.85,3.6c2.58,2.4,3.87,5.41,3.87,9.03s-1.29,6.5-3.87,8.9c-2.58,2.4-5.87,3.6-9.85,3.6s-7.4-1.2-9.99-3.6ZM593.33,354.07v75.81h-23.23v-75.81h23.23Z"/>
    <path class="st1" d="M633.41,329.35v100.53h-23.23v-100.53h23.23Z"/>
    <path class="st1" d="M727.69,354.07l-47.55,111.81h-25l17.39-38.58-30.84-73.23h25.95l17.52,47.41,17.39-47.41h25.13Z"/>
    <path class="st1" d="M818.71,334.51v95.37h-23.23v-39.26h-36.14v39.26h-23.23v-95.37h23.23v37.36h36.14v-37.36h23.23Z"/>
    <path class="st1" d="M906.47,397.55h-52.58c.36,4.71,1.88,8.31,4.55,10.8,2.67,2.49,5.95,3.74,9.85,3.74,5.79,0,9.83-2.45,12.09-7.34h24.73c-1.27,4.98-3.56,9.46-6.86,13.45-3.31,3.99-7.45,7.11-12.43,9.37-4.98,2.26-10.55,3.4-16.71,3.4-7.43,0-14.04-1.58-19.83-4.75-5.8-3.17-10.33-7.7-13.59-13.58-3.26-5.89-4.89-12.77-4.89-20.65s1.61-14.76,4.82-20.65c3.21-5.89,7.72-10.41,13.52-13.59,5.79-3.17,12.45-4.75,19.97-4.75s13.86,1.54,19.56,4.62c5.71,3.08,10.17,7.47,13.38,13.18,3.21,5.71,4.82,12.36,4.82,19.97,0,2.17-.14,4.44-.41,6.79ZM883.1,384.64c0-3.98-1.36-7.15-4.08-9.51-2.72-2.35-6.11-3.53-10.19-3.53s-7.18,1.13-9.85,3.4c-2.67,2.26-4.33,5.48-4.96,9.65h29.07Z"/>
    <path class="st1" d="M918.9,371.33c2.94-5.89,6.95-10.41,12.02-13.59,5.07-3.17,10.73-4.75,16.98-4.75,5.34,0,10.03,1.09,14.06,3.26,4.03,2.17,7.13,5.03,9.31,8.56v-10.73h23.23v75.81h-23.23v-10.73c-2.26,3.53-5.41,6.38-9.44,8.56-4.03,2.17-8.72,3.26-14.06,3.26-6.16,0-11.77-1.61-16.85-4.82-5.07-3.21-9.08-7.79-12.02-13.72-2.94-5.93-4.42-12.79-4.42-20.58s1.47-14.63,4.42-20.51ZM966.45,378.26c-3.22-3.35-7.13-5.03-11.75-5.03s-8.54,1.65-11.75,4.96c-3.22,3.31-4.82,7.86-4.82,13.65s1.61,10.39,4.82,13.79c3.21,3.4,7.13,5.09,11.75,5.09s8.54-1.67,11.75-5.03c3.21-3.35,4.82-7.92,4.82-13.72s-1.61-10.37-4.82-13.72Z"/>
    <path class="st1" d="M1044.77,356.86c4.08-2.4,8.6-3.6,13.59-3.6v24.59h-6.39c-5.8,0-10.14,1.25-13.04,3.74-2.9,2.49-4.35,6.86-4.35,13.11v35.19h-23.23v-75.81h23.23v12.63c2.72-4.17,6.11-7.45,10.19-9.85Z"/>
    <path class="st1" d="M1111.74,410.18v19.7h-11.82c-8.42,0-14.99-2.06-19.7-6.18-4.71-4.12-7.06-10.84-7.06-20.17v-30.16h-9.24v-19.29h9.24v-18.48h23.23v18.48h15.21v19.29h-15.21v30.43c0,2.26.54,3.9,1.63,4.89,1.09,1,2.9,1.49,5.43,1.49h8.29Z"/>
  </g>
  <g>
    <path class="st0" d="M1195.91,413.04h-35.59l-5.71,16.85h-24.32l34.51-95.37h26.9l34.51,95.37h-24.59l-5.71-16.85ZM1189.93,395.1l-11.82-34.92-11.68,34.92h23.5Z"/>
    <path class="st0" d="M1238.36,342.59c-2.58-2.4-3.87-5.37-3.87-8.9s1.29-6.63,3.87-9.03c2.58-2.4,5.91-3.6,9.99-3.6s7.27,1.2,9.85,3.6c2.58,2.4,3.87,5.41,3.87,9.03s-1.29,6.5-3.87,8.9c-2.58,2.4-5.87,3.6-9.85,3.6s-7.4-1.2-9.99-3.6ZM1259.89,354.07v75.81h-23.23v-75.81h23.23Z"/>
  </g>
</svg>